<svg width="38" height="25" viewBox="0 0 38 25" fill="none" xmlns="http://www.w3.org/2000/svg">
<g clip-path="url(#clip0_105_1021)">
<path opacity="0.07" d="M35 0.317078H3C1.3 0.317078 0 1.61708 0 3.31708V21.3171C0 23.0171 1.4 24.3171 3 24.3171H35C36.7 24.3171 38 23.0171 38 21.3171V3.31708C38 1.61708 36.6 0.317078 35 0.317078Z" fill="black"/>
<path d="M35 1.31708C36.1 1.31708 37 2.21708 37 3.31708V21.3171C37 22.4171 36.1 23.3171 35 23.3171H3C1.9 23.3171 1 22.4171 1 21.3171V3.31708C1 2.21708 1.9 1.31708 3 1.31708H35Z" fill="#006FCF"/>
<path d="M8.971 10.5851L9.745 12.4611H8.203L8.971 10.5851ZM25.046 10.6631H22.069V11.4901H24.998V12.7291H22.075V13.6511H25.052V14.3901L27.129 12.1451L25.052 9.80508L25.046 10.6631ZM10.983 8.32308H14.978L15.865 10.2581L16.687 8.31708H27.057L28.135 9.50708L29.25 8.31708H34.013L30.494 12.1691L33.977 15.9971H29.143L28.065 14.8071L26.94 15.9971H10.03L9.536 14.8071H8.406L7.911 15.9971H4L7.286 8.31708H10.716L10.983 8.32308ZM19.646 9.40108H17.407L15.907 12.9371L14.282 9.40108H12.06V14.2111L10 9.40108H8.007L5.625 14.9131H7.18L7.674 13.7231H10.27L10.764 14.9131H13.484V10.9781L15.235 14.9191H16.425L18.165 10.9901V14.9201H19.623L19.647 9.40008L19.646 9.40108ZM28.986 12.1691L31.517 9.40108H29.695L28.094 11.1271L26.546 9.40108H20.652V14.9191H26.462L28.076 13.1811L29.624 14.9191H31.499L28.986 12.1691Z" fill="white"/>
</g>
<defs>
<clipPath id="clip0_105_1021">
<rect width="38" height="24" fill="white" transform="translate(0 0.317078)"/>
</clipPath>
</defs>
</svg>
