<svg width="24" height="24" viewBox="0 0 24 24" fill="none" xmlns="http://www.w3.org/2000/svg">
<path d="M21 12.3001C21.0603 10.495 20.5761 8.71347 19.6104 7.18721C18.6446 5.66096 17.242 4.46058 15.5849 3.74215C13.9278 3.02373 12.0929 2.8205 10.3188 3.15889C8.54463 3.49729 6.91334 4.36165 5.63702 5.63959C4.3607 6.91752 3.49841 8.5499 3.16226 10.3245C2.82611 12.0991 3.03166 13.9337 3.75218 15.5899C4.47271 17.2461 5.67486 18.6472 7.20234 19.611C8.72982 20.5748 10.5119 21.0567 12.317 20.9941" stroke="#FBFBFB" stroke-width="2" stroke-linecap="round" stroke-linejoin="round"/>
<path d="M12 7V12L14 14M16 19C16 19.7956 16.3161 20.5587 16.8787 21.1213C17.4413 21.6839 18.2044 22 19 22C19.7956 22 20.5587 21.6839 21.1213 21.1213C21.6839 20.5587 22 19.7956 22 19C22 18.2044 21.6839 17.4413 21.1213 16.8787C20.5587 16.3161 19.7956 16 19 16C18.2044 16 17.4413 16.3161 16.8787 16.8787C16.3161 17.4413 16 18.2044 16 19Z" stroke="#FBFBFB" stroke-width="2" stroke-linecap="round" stroke-linejoin="round"/>
</svg>
