<svg width="38" height="25" viewBox="0 0 38 25" fill="none" xmlns="http://www.w3.org/2000/svg">
<g clip-path="url(#clip0_105_1026)">
<path opacity="0.07" d="M35 0.317078H3C1.3 0.317078 0 1.61708 0 3.31708V21.3171C0 23.0171 1.4 24.3171 3 24.3171H35C36.7 24.3171 38 23.0171 38 21.3171V3.31708C38 1.61708 36.6 0.317078 35 0.317078Z" fill="black"/>
<path d="M35 1.31708C36.1 1.31708 37 2.21708 37 3.31708V21.3171C37 22.4171 36.1 23.3171 35 23.3171H3C1.9 23.3171 1 22.4171 1 21.3171V3.31708C1 2.21708 1.9 1.31708 3 1.31708H35Z" fill="white"/>
<path d="M3.57 7.47706H2V12.9771H3.57C4.4 12.9771 5 12.7771 5.53 12.3471C6.16 11.8271 6.53 11.0471 6.53 10.2371C6.52 8.60706 5.31 7.47706 3.57 7.47706ZM4.83 11.6171C4.49 11.9171 4.06 12.0571 3.36 12.0571H3.07V8.41706H3.36C4.05 8.41706 4.47 8.53706 4.83 8.85706C5.2 9.18706 5.42 9.69706 5.42 10.2271C5.42 10.7571 5.2 11.2871 4.83 11.6171ZM7.02 7.47706H8.09V12.9771H7.02V7.47706ZM10.71 9.58706C10.07 9.34706 9.88 9.18706 9.88 8.89706C9.88 8.54706 10.22 8.28706 10.68 8.28706C11 8.28706 11.27 8.41706 11.54 8.73706L12.1 8.00706C11.64 7.60706 11.09 7.39706 10.48 7.39706C9.51 7.39706 8.76 8.07706 8.76 8.97706C8.76 9.73706 9.11 10.1271 10.11 10.4871C10.53 10.6371 10.74 10.7371 10.85 10.7971C11.06 10.9371 11.17 11.1371 11.17 11.3671C11.17 11.8171 10.82 12.1471 10.34 12.1471C9.83 12.1471 9.42 11.8871 9.17 11.4171L8.48 12.0871C8.97 12.8171 9.57 13.1371 10.38 13.1371C11.49 13.1371 12.28 12.3971 12.28 11.3271C12.3 10.4371 11.93 10.0371 10.71 9.58706ZM12.63 10.2371C12.63 11.8571 13.9 13.1071 15.53 13.1071C15.99 13.1071 16.39 13.0171 16.87 12.7871V11.5271C16.44 11.9571 16.06 12.1271 15.58 12.1271C14.5 12.1271 13.73 11.3471 13.73 10.2271C13.73 9.16706 14.52 8.33706 15.53 8.33706C16.04 8.33706 16.43 8.51706 16.87 8.95706V7.69706C16.4 7.45706 16.01 7.35706 15.55 7.35706C13.94 7.35706 12.63 8.63706 12.63 10.2371ZM25.39 11.1771L23.92 7.47706H22.75L25.08 13.1171H25.66L28.03 7.47706H26.87L25.39 11.1771ZM28.52 12.9771H31.56V12.0471H29.59V10.5671H31.49V9.63706H29.59V8.41706H31.56V7.47706H28.52V12.9771ZM35.81 9.10706C35.81 8.07706 35.1 7.48706 33.86 7.48706H32.27V12.9871H33.34V10.7771H33.48L34.96 12.9871H36.28L34.55 10.6671C35.36 10.4971 35.81 9.94706 35.81 9.10706ZM33.65 10.0171H33.34V8.34706H33.67C34.34 8.34706 34.7 8.62706 34.7 9.16706C34.7 9.71706 34.34 10.0171 33.65 10.0171Z" fill="#231F20"/>
<path d="M20.16 13.1771C20.9374 13.1771 21.6829 12.8683 22.2325 12.3186C22.7822 11.7689 23.091 11.0234 23.091 10.2461C23.091 9.46871 22.7822 8.7232 22.2325 8.17353C21.6829 7.62386 20.9374 7.31506 20.16 7.31506C19.3827 7.31506 18.6371 7.62386 18.0875 8.17353C17.5378 8.7232 17.229 9.46871 17.229 10.2461C17.229 11.0234 17.5378 11.7689 18.0875 12.3186C18.6371 12.8683 19.3827 13.1771 20.16 13.1771Z" fill="url(#paint0_linear_105_1026)"/>
<path opacity="0.65" d="M20.16 13.1771C20.9374 13.1771 21.6829 12.8683 22.2325 12.3186C22.7822 11.7689 23.091 11.0234 23.091 10.2461C23.091 9.46871 22.7822 8.7232 22.2325 8.17353C21.6829 7.62386 20.9374 7.31506 20.16 7.31506C19.3827 7.31506 18.6371 7.62386 18.0875 8.17353C17.5378 8.7232 17.229 9.46871 17.229 10.2461C17.229 11.0234 17.5378 11.7689 18.0875 12.3186C18.6371 12.8683 19.3827 13.1771 20.16 13.1771Z" fill="url(#paint1_linear_105_1026)"/>
<path d="M36.57 7.8231C36.57 7.7231 36.5 7.6731 36.39 7.6731H36.23V8.1531H36.35V7.9631L36.49 8.1531H36.63L36.47 7.9531C36.53 7.9431 36.57 7.8931 36.57 7.8231ZM36.37 7.8931H36.35V7.7631H36.37C36.43 7.7631 36.46 7.7831 36.46 7.8231C36.46 7.8731 36.43 7.8931 36.37 7.8931Z" fill="#231F20"/>
<path d="M36.41 7.4931C36.18 7.4931 35.99 7.6831 35.99 7.9131C35.99 8.1431 36.18 8.3331 36.41 8.3331C36.64 8.3331 36.83 8.1431 36.83 7.9131C36.83 7.6831 36.64 7.4931 36.41 7.4931ZM36.41 8.2631C36.23 8.2631 36.07 8.1131 36.07 7.9131C36.07 7.7231 36.22 7.5631 36.41 7.5631C36.59 7.5631 36.74 7.7231 36.74 7.9131C36.74 8.1031 36.59 8.2631 36.41 8.2631Z" fill="#231F20"/>
<path d="M37 13.3011C37 13.3011 27.09 20.1901 8.97595 23.3171H34.999C35.5266 23.3171 36.0329 23.1086 36.4075 22.737C36.7822 22.3653 36.9947 21.8607 36.999 21.3331L37.023 18.3131L37 13.3011Z" fill="#F48120"/>
</g>
<defs>
<linearGradient id="paint0_linear_105_1026" x1="21.657" y1="12.5921" x2="19.632" y2="9.42106" gradientUnits="userSpaceOnUse">
<stop stop-color="#F89F20"/>
<stop offset="0.25" stop-color="#F79A20"/>
<stop offset="0.533" stop-color="#F68D20"/>
<stop offset="0.62" stop-color="#F58720"/>
<stop offset="0.723" stop-color="#F48120"/>
<stop offset="1" stop-color="#F37521"/>
</linearGradient>
<linearGradient id="paint1_linear_105_1026" x1="21.338" y1="12.5491" x2="18.378" y2="6.76306" gradientUnits="userSpaceOnUse">
<stop stop-color="#F58720"/>
<stop offset="0.359" stop-color="#E16F27"/>
<stop offset="0.703" stop-color="#D4602C"/>
<stop offset="0.982" stop-color="#D05B2E"/>
</linearGradient>
<clipPath id="clip0_105_1026">
<rect width="38" height="24" fill="white" transform="translate(0 0.317078)"/>
</clipPath>
</defs>
</svg>
