<svg width="38" height="25" viewBox="0 0 38 25" fill="none" xmlns="http://www.w3.org/2000/svg">
<g clip-path="url(#clip0_105_1035)">
<path opacity="0.07" d="M35 0.317078H3C1.3 0.317078 0 1.61708 0 3.31708V21.3171C0 23.0171 1.4 24.3171 3 24.3171H35C36.7 24.3171 38 23.0171 38 21.3171V3.31708C38 1.61708 36.6 0.317078 35 0.317078Z" fill="black"/>
<path d="M35 1.31708C36.1 1.31708 37 2.21708 37 3.31708V21.3171C37 22.4171 36.1 23.3171 35 23.3171H3C1.9 23.3171 1 22.4171 1 21.3171V3.31708C1 2.21708 1.9 1.31708 3 1.31708H35Z" fill="white"/>
<path d="M15 19.3171C18.866 19.3171 22 16.1831 22 12.3171C22 8.45108 18.866 5.31708 15 5.31708C11.134 5.31708 8 8.45108 8 12.3171C8 16.1831 11.134 19.3171 15 19.3171Z" fill="#EB001B"/>
<path d="M23 19.3171C26.866 19.3171 30 16.1831 30 12.3171C30 8.45108 26.866 5.31708 23 5.31708C19.134 5.31708 16 8.45108 16 12.3171C16 16.1831 19.134 19.3171 23 19.3171Z" fill="#F79E1B"/>
<path d="M22 12.3171C22 9.91707 20.8 7.81707 19 6.61707C17.2 7.91707 16 10.0171 16 12.3171C16 14.6171 17.2 16.8171 19 18.0171C20.8 16.8171 22 14.7171 22 12.3171Z" fill="#FF5F00"/>
</g>
<defs>
<clipPath id="clip0_105_1035">
<rect width="38" height="24" fill="white" transform="translate(0 0.317078)"/>
</clipPath>
</defs>
</svg>
