<svg width="24" height="24" viewBox="0 0 24 24" fill="none" xmlns="http://www.w3.org/2000/svg">
<g clip-path="url(#clip0_228_7989)">
<path d="M1.7725 19.798C1.81786 20.4273 2.08839 21.0193 2.53455 21.4654C2.98072 21.9116 3.57266 22.1821 4.202 22.2275C5.86 22.3595 8.457 22.5 12 22.5C15.5425 22.5 18.14 22.3595 19.798 22.2275C20.4273 22.1821 21.0193 21.9116 21.4654 21.4654C21.9116 21.0193 22.1821 20.4273 22.2275 19.798C22.3595 18.14 22.5 15.543 22.5 12C22.5 8.4575 22.3595 5.86 22.2275 4.202C22.1821 3.57266 21.9116 2.98072 21.4654 2.53455C21.0193 2.08839 20.4273 1.81786 19.798 1.7725C18.14 1.6405 15.543 1.5 12 1.5C8.4575 1.5 5.86 1.6405 4.202 1.7725C3.57266 1.81786 2.98072 2.08839 2.53455 2.53455C2.08839 2.98072 1.81786 3.57266 1.7725 4.202C1.6405 5.86 1.5 8.457 1.5 12C1.5 15.5425 1.6405 18.14 1.7725 19.798Z" stroke="black" stroke-width="1.5" stroke-linecap="round"/>
<path d="M15.3381 1.54456C15.3156 3.67456 15.1611 5.85356 15.0716 6.96006C15.065 7.0417 15.0381 7.12042 14.9935 7.18909C14.9488 7.25777 14.8878 7.31425 14.8158 7.35344C14.7439 7.39264 14.6633 7.4133 14.5814 7.41359C14.4995 7.41387 14.4188 7.39375 14.3466 7.35506L12.1166 6.17556C12.0806 6.15655 12.0406 6.14662 11.9999 6.14662C11.9592 6.14662 11.9191 6.15655 11.8831 6.17556L9.65411 7.35556C9.58191 7.39425 9.50121 7.41437 9.41929 7.41409C9.33738 7.4138 9.25682 7.39314 9.18488 7.35394C9.11295 7.31475 9.0519 7.25827 9.00725 7.18959C8.9626 7.12092 8.93574 7.0422 8.92911 6.96056C8.83911 5.85356 8.68511 3.67456 8.66211 1.54456" stroke="black" stroke-width="1.5" stroke-linecap="round" stroke-linejoin="round"/>
<path d="M18 18H13.5M18 14H15.5" stroke="black" stroke-width="1.5" stroke-linecap="round"/>
</g>
<defs>
<clipPath id="clip0_228_7989">
<rect width="24" height="24" fill="white"/>
</clipPath>
</defs>
</svg>
