<svg width="38" height="25" viewBox="0 0 38 25" fill="none" xmlns="http://www.w3.org/2000/svg">
<g clip-path="url(#clip0_105_1045)">
<path opacity="0.07" d="M35 0.317078H3C1.3 0.317078 0 1.61708 0 3.31708V21.3171C0 23.0171 1.4 24.3171 3 24.3171H35C36.7 24.3171 38 23.0171 38 21.3171V3.31708C38 1.61708 36.6 0.317078 35 0.317078Z" fill="black"/>
<path d="M35.889 0.317078C37.05 0.317078 38 1.29908 38 2.49908V22.1351C38 23.3351 37.05 24.3171 35.889 24.3171H2.11C0.95 24.3171 0 23.3351 0 22.1351V2.49908C0 1.29908 0.95 0.317078 2.111 0.317078H35.889Z" fill="#5A31F4"/>
<path d="M9.35001 11.6851C8.33301 11.4621 7.88001 11.3751 7.88001 10.9801C7.88001 10.6081 8.18601 10.4221 8.80001 10.4221C9.34001 10.4221 9.73401 10.6601 10.025 11.1261C10.0353 11.1434 10.0517 11.1561 10.0711 11.1617C10.0904 11.1673 10.1111 11.1653 10.129 11.1561L11.275 10.5721C11.2848 10.5669 11.2934 10.5597 11.3003 10.5511C11.3072 10.5425 11.3123 10.5326 11.3153 10.5219C11.3183 10.5113 11.3191 10.5001 11.3177 10.4891C11.3163 10.4782 11.3126 10.4676 11.307 10.4581C10.832 9.62708 9.95401 9.17208 8.79701 9.17208C7.27701 9.17208 6.33301 9.92708 6.33301 11.1281C6.33301 12.4031 7.48301 12.7251 8.50301 12.9481C9.52301 13.1701 9.97701 13.2581 9.97701 13.6531C9.97701 14.0491 9.64501 14.2351 8.98401 14.2351C8.37201 14.2351 7.91901 13.9531 7.64401 13.4051C7.63438 13.3863 7.61774 13.3721 7.59771 13.3656C7.57767 13.359 7.55586 13.3606 7.53701 13.3701L6.39401 13.9401C6.37461 13.9501 6.35995 13.9674 6.35321 13.9882C6.34647 14.009 6.34819 14.0316 6.35801 14.0511C6.81201 14.9711 7.74201 15.4881 8.98501 15.4881C10.568 15.4881 11.524 14.7461 11.524 13.5081C11.524 12.2701 10.369 11.9101 9.35101 11.6881L9.35001 11.6851ZM15.49 9.17208C14.84 9.17208 14.266 9.40408 13.854 9.81808C13.8484 9.82406 13.841 9.82815 13.8329 9.8298C13.8249 9.83145 13.8165 9.83057 13.809 9.8273C13.8014 9.82402 13.7951 9.81849 13.7908 9.81147C13.7865 9.80446 13.7845 9.79629 13.785 9.78808V7.14808C13.7851 7.13749 13.7832 7.12698 13.7792 7.11716C13.7752 7.10733 13.7694 7.0984 13.7619 7.09086C13.7545 7.08333 13.7456 7.07734 13.7359 7.07326C13.7261 7.06918 13.7156 7.06708 13.705 7.06708H12.27C12.2593 7.06707 12.2488 7.06921 12.2389 7.07335C12.2291 7.0775 12.2202 7.08357 12.2127 7.09121C12.2053 7.09885 12.1994 7.10791 12.1955 7.11785C12.1916 7.12779 12.1897 7.1384 12.19 7.14908V15.3431C12.1897 15.3538 12.1916 15.3644 12.1955 15.3743C12.1994 15.3842 12.2053 15.3933 12.2127 15.4009C12.2202 15.4086 12.2291 15.4147 12.2389 15.4188C12.2488 15.4229 12.2593 15.4251 12.27 15.4251H13.703C13.7138 15.4252 13.7244 15.4232 13.7344 15.4191C13.7444 15.415 13.7534 15.409 13.7609 15.4013C13.7685 15.3936 13.7744 15.3845 13.7784 15.3745C13.7824 15.3645 13.7843 15.3538 13.784 15.3431V11.7491C13.784 11.0541 14.312 10.5221 15.023 10.5221C15.733 10.5221 16.249 11.0431 16.249 11.7491V15.3431C16.2487 15.3538 16.2506 15.3645 16.2546 15.3745C16.2586 15.3845 16.2645 15.3936 16.2721 15.4013C16.2796 15.409 16.2887 15.415 16.2986 15.4191C16.3086 15.4232 16.3192 15.4252 16.33 15.4251H17.763C17.7738 15.4252 17.7844 15.4232 17.7944 15.4191C17.8044 15.415 17.8134 15.409 17.8209 15.4013C17.8285 15.3936 17.8344 15.3845 17.8384 15.3745C17.8424 15.3645 17.8443 15.3538 17.844 15.3431V11.7491C17.844 10.2391 16.864 9.17208 15.49 9.17208ZM20.753 8.93708C19.975 8.93708 19.246 9.17708 18.723 9.52508C18.7055 9.5364 18.6929 9.55398 18.6879 9.57423C18.6829 9.59448 18.6858 9.61588 18.696 9.63408L19.328 10.7221C19.3332 10.7313 19.3402 10.7395 19.3485 10.746C19.3569 10.7525 19.3665 10.7573 19.3767 10.7601C19.387 10.7629 19.3977 10.7636 19.4082 10.7623C19.4187 10.7609 19.4288 10.7574 19.438 10.7521C19.8348 10.5099 20.2912 10.3832 20.756 10.3861C22.006 10.3861 22.926 11.2771 22.926 12.4541C22.926 13.4571 22.19 14.1991 21.257 14.1991C20.497 14.1991 19.969 13.7531 19.969 13.1221C19.969 12.7611 20.121 12.4651 20.517 12.2561C20.5268 12.2511 20.5355 12.2441 20.5425 12.2356C20.5495 12.2271 20.5547 12.2172 20.5577 12.2066C20.5607 12.196 20.5615 12.1848 20.56 12.1739C20.5585 12.163 20.5548 12.1525 20.549 12.1431L19.953 11.1251C19.9435 11.1085 19.9284 11.0959 19.9105 11.0895C19.8925 11.083 19.8728 11.0833 19.855 11.0901C19.056 11.3891 18.496 12.1081 18.496 13.0741C18.496 14.5341 19.648 15.6241 21.256 15.6241C23.133 15.6241 24.483 14.3111 24.483 12.4291C24.483 10.4111 22.913 8.93708 20.753 8.93708ZM28.675 9.16008C27.951 9.16008 27.302 9.43008 26.83 9.90608C26.804 9.93308 26.761 9.91308 26.761 9.87708V9.30508C26.7613 9.2944 26.7594 9.28379 26.7555 9.27385C26.7516 9.26391 26.7458 9.25485 26.7383 9.24721C26.7308 9.23957 26.7219 9.2335 26.7121 9.22935C26.7023 9.22521 26.6917 9.22307 26.681 9.22308H25.284C25.2733 9.22307 25.2628 9.22521 25.2529 9.22935C25.2431 9.2335 25.2342 9.23957 25.2267 9.24721C25.2193 9.25485 25.2134 9.26391 25.2095 9.27385C25.2056 9.28379 25.2037 9.2944 25.204 9.30508V17.4871C25.2039 17.4977 25.2058 17.5082 25.2098 17.518C25.2138 17.5278 25.2196 17.5368 25.2271 17.5443C25.2345 17.5518 25.2434 17.5578 25.2532 17.5619C25.2629 17.566 25.2734 17.5681 25.284 17.5681H26.717C26.7277 17.5682 26.7383 17.5662 26.7482 17.5622C26.7581 17.5582 26.767 17.5522 26.7746 17.5447C26.7821 17.5371 26.7881 17.5281 26.7921 17.5182C26.7961 17.5083 26.7981 17.4978 26.798 17.4871V14.8041C26.798 14.7681 26.841 14.7501 26.867 14.7741C27.3569 15.2318 28.0046 15.4826 28.675 15.4741C30.357 15.4741 31.668 14.1011 31.668 12.3171C31.668 10.5331 30.355 9.16008 28.675 9.16008ZM28.404 14.0891C27.448 14.0891 26.723 13.3211 26.723 12.3061C26.723 11.2911 27.446 10.5231 28.404 10.5231C29.362 10.5231 30.084 11.2781 30.084 12.3061C30.084 13.3331 29.372 14.0891 28.404 14.0891Z" fill="white"/>
</g>
<defs>
<clipPath id="clip0_105_1045">
<rect width="38" height="24" fill="white" transform="translate(0 0.317078)"/>
</clipPath>
</defs>
</svg>
