<svg width="38" height="25" viewBox="0 0 38 25" fill="none" xmlns="http://www.w3.org/2000/svg">
<g clip-path="url(#clip0_105_1041)">
<path opacity="0.07" d="M35 0.317078H3C1.3 0.317078 0 1.61708 0 3.31708V21.3171C0 23.0171 1.4 24.3171 3 24.3171H35C36.7 24.3171 38 23.0171 38 21.3171V3.31708C38 1.61708 36.6 0.317078 35 0.317078Z" fill="black"/>
<path d="M35 1.31708C36.1 1.31708 37 2.21708 37 3.31708V21.3171C37 22.4171 36.1 23.3171 35 23.3171H3C1.9 23.3171 1 22.4171 1 21.3171V3.31708C1 2.21708 1.9 1.31708 3 1.31708H35Z" fill="white"/>
<path d="M28.3 10.4171H28C27.6 11.4171 27.3 11.9171 27 13.4171H28.9C28.6 11.9171 28.6 11.2171 28.3 10.4171ZM31.2 16.3171H29.5C29.4 16.3171 29.4 16.3171 29.3 16.2171L29.1 15.3171L29 15.1171H26.6C26.5 15.1171 26.4 15.1171 26.4 15.3171L26.1 16.2171C26.1 16.3171 26 16.3171 26 16.3171H23.9L24.1 15.8171L27 9.01708C27 8.51708 27.3 8.31708 27.8 8.31708H29.3C29.4 8.31708 29.5 8.31708 29.5 8.51708L30.9 15.0171C31 15.4171 31.1 15.7171 31.1 16.1171C31.2 16.2171 31.2 16.2171 31.2 16.3171ZM17.8 16.0171L18.2 14.2171C18.3 14.2171 18.4 14.3171 18.4 14.3171C19.1 14.6171 19.8 14.8171 20.5 14.7171C20.7 14.7171 21 14.6171 21.2 14.5171C21.7 14.3171 21.7 13.8171 21.3 13.4171C21.1 13.2171 20.8 13.1171 20.5 12.9171C20.1 12.7171 19.7 12.5171 19.4 12.2171C18.2 11.2171 18.6 9.81708 19.3 9.11708C19.9 8.71708 20.2 8.31708 21 8.31708C22.2 8.31708 23.5 8.31708 24.1 8.51708H24.2C24.1 9.11708 24 9.61708 23.8 10.2171C23.3 10.0171 22.8 9.81708 22.3 9.81708C22 9.81708 21.7 9.81708 21.4 9.91708C21.2 9.91708 21.1 10.0171 21 10.1171C20.8 10.3171 20.8 10.6171 21 10.8171L21.5 11.2171C21.9 11.4171 22.3 11.6171 22.6 11.8171C23.1 12.1171 23.6 12.6171 23.7 13.2171C23.9 14.1171 23.6 14.9171 22.8 15.5171C22.3 15.9171 22.1 16.1171 21.4 16.1171C20 16.1171 18.9 16.2171 18 15.9171C17.9 16.1171 17.9 16.1171 17.8 16.0171ZM14.3 16.3171C14.4 15.6171 14.4 15.6171 14.5 15.3171C15 13.1171 15.5 10.8171 15.9 8.61708C16 8.41708 16 8.31708 16.2 8.31708H18C17.8 9.51708 17.6 10.4171 17.3 11.5171C17 13.0171 16.7 14.5171 16.3 16.0171C16.3 16.2171 16.2 16.2171 16 16.2171M5 8.51708C5 8.41708 5.2 8.31708 5.3 8.31708H8.7C9.2 8.31708 9.6 8.61708 9.7 9.11708L10.6 13.5171C10.6 13.6171 10.6 13.6171 10.7 13.7171C10.7 13.6171 10.8 13.6171 10.8 13.6171L12.9 8.51708C12.8 8.41708 12.9 8.31708 13 8.31708H15.1C15.1 8.41708 15.1 8.41708 15 8.51708L11.9 15.8171C11.8 16.0171 11.8 16.1171 11.7 16.2171C11.6 16.3171 11.4 16.2171 11.2 16.2171H9.7C9.6 16.2171 9.5 16.2171 9.5 16.0171L7.9 9.81708C7.7 9.61708 7.4 9.31708 7 9.21708C6.4 8.91708 5.3 8.71708 5.1 8.71708L5 8.51708Z" fill="#142688"/>
</g>
<defs>
<clipPath id="clip0_105_1041">
<rect width="38" height="24" fill="white" transform="translate(0 0.317078)"/>
</clipPath>
</defs>
</svg>
